# xmcd CD database file generated by Grip 3.2.0
# 
# Track frame offsets:
#       150
#       23060
#       42698
#       64480
#       87398
# 
# Disc length: 1422 seconds
# 
# Revision: 3
# Processed by: cddbd v1.5.1PL0 Copyright (c) Steve Scherf et al.
# Submitted via: Grip 3.2.0
# 
DISCID=43058c05
DTITLE=SEAMO with BENNIE K - a love story
DYEAR=2005
DGENRE=Other
TTITLE0=a love story
TTITLE1=Runnin'
TTITLE2=Honey Honey (V.I.P MIX)
TTITLE3=a love story (instrumental)
TTITLE4=Runnin' (instrumental）
EXTD=YEAR: 2005
EXTT0=
EXTT1=
EXTT2=
EXTT3=
EXTT4=
PLAYORDER=
